<svg xmlns="http://www.w3.org/2000/svg" viewBox="0 0 507.26 83.91"><defs><style>.cls-1{fill:#1a1616;}.cls-2{fill:#d51f26;}</style></defs><title>Asset 1</title><g id="Layer_2" data-name="Layer 2"><g id="Layer_1-2" data-name="Layer 1"><path class="cls-1" d="M180.34,38.48q-7.69,0-12.08,4.45a16.18,16.18,0,0,0-4.39,11.74q0,7.34,4.56,11.69t12,4.36a19.06,19.06,0,0,0,6.66-1.1,14.18,14.18,0,0,0,4.46-2.44,13.63,13.63,0,0,0,2.57-3.08,15.87,15.87,0,0,0,1.3-2.44,7.18,7.18,0,0,0,.31-1.1h-8.85l-.13.35a3.06,3.06,0,0,1-.59.82,6.55,6.55,0,0,1-1.1.93,6.4,6.4,0,0,1-1.85.78,9.78,9.78,0,0,1-2.71.35A8.43,8.43,0,0,1,175,62a6.63,6.63,0,0,1-2.51-4.8h23.67a24.58,24.58,0,0,0,.14-2.53q0-7.35-4.22-11.77C189.29,40,185.36,38.48,180.34,38.48Zm7.4,12.82H172.51A6.56,6.56,0,0,1,175,47.05a8.42,8.42,0,0,1,5.38-1.65A8.6,8.6,0,0,1,185.69,47a4.92,4.92,0,0,1,2.05,4.15Z"/><path class="cls-1" d="M208.32,43.76v-4.6h-8.64V70h8.85v-9.4q0-8.77,1.44-11.42c1-1.76,3.24-2.64,6.86-2.64h3.43V39.16h-3.64A9,9,0,0,0,208.32,43.76Z"/><path class="cls-1" d="M237.48,45.4a9.32,9.32,0,0,1,3,.45,6.2,6.2,0,0,1,2,1,7.13,7.13,0,0,1,1.16,1.23,3.37,3.37,0,0,1,.59,1,1.6,1.6,0,0,0,.14.45h9l-.2-1.17a7.92,7.92,0,0,0-1.1-2.74,18.68,18.68,0,0,0-2.47-3.26,11.75,11.75,0,0,0-4.7-2.74,21.91,21.91,0,0,0-7.37-1.13q-8,0-12.42,4.32a15.31,15.31,0,0,0-4.53,11.52q0,7.62,4.46,12t12.49,4.39a18.56,18.56,0,0,0,7.27-1.34,13.76,13.76,0,0,0,4.66-2.95,14.14,14.14,0,0,0,2.5-3.74,14.44,14.44,0,0,0,1.14-2.95c.09-.55.16-1,.2-1.3h-8.91l-.42,1.3a5.67,5.67,0,0,1-2.12,2.71,6.85,6.85,0,0,1-4.32,1.34,7.11,7.11,0,0,1-5.9-2.57,10.7,10.7,0,0,1-2.06-6.9,9.72,9.72,0,0,1,2-6.58A7.43,7.43,0,0,1,237.48,45.4Z"/><path class="cls-1" d="M274.93,38.48h-.55a10.39,10.39,0,0,0-8.92,4.45v-17h-8.85V70h8.85V55.9q0-5,1.92-7.72c1.28-1.8,3.3-2.71,6-2.71h.21q6.17.08,6.17,8.37V70h8.85V53.84q0-7.47-3.09-11.42T274.93,38.48Z"/><path class="cls-1" d="M323.46,62.14a2.87,2.87,0,0,1-.38-1.71V58.71l-.07-9a10,10,0,0,0-3.73-8.27q-3.75-3-11-3a21.25,21.25,0,0,0-7.07,1.06,13.32,13.32,0,0,0-4.46,2.37,10.79,10.79,0,0,0-2.33,3,11.44,11.44,0,0,0-1,2.33,5.6,5.6,0,0,0-.14,1.07h9l.21-.83c.13-.55.69-1.1,1.68-1.64A8.39,8.39,0,0,1,308.2,45q6.17,0,6.17,4.8v.48h-.62q-22,1.11-22,11.25a8.34,8.34,0,0,0,3,6.59q3,2.61,9.06,2.61,7.81,0,11.45-4.39a5.28,5.28,0,0,0,3.16,2.91,19.69,19.69,0,0,0,6.38.79h1V62.62h-.89A1.71,1.71,0,0,1,323.46,62.14Zm-9.09-4.66a5.62,5.62,0,0,1-2.78,5,10.85,10.85,0,0,1-5.93,1.78h-.27a7,7,0,0,1-3.3-.83,2.33,2.33,0,0,1-1.3-2.12,3.58,3.58,0,0,1,1.27-2.78,8.29,8.29,0,0,1,3.74-1.68,40.88,40.88,0,0,1,4.15-.75c1.12-.14,2.59-.28,4.42-.42Z"/><path class="cls-1" d="M347.57,38.48h-.48a10.51,10.51,0,0,0-9.33,5V39.16h-8.5V70h8.84V55.9q0-5,1.93-7.72c1.28-1.8,3.29-2.71,6-2.71h.21q6.17.08,6.17,8.37V70h8.85V53.84q0-7.41-3.09-11.39T347.57,38.48Z"/><path class="cls-1" d="M390.17,42.93a10.69,10.69,0,0,0-8.44-4.32c-.5,0-1-.07-1.51-.07q-7,0-11.25,4.26a16.07,16.07,0,0,0-4.66,11.87q0,7.39,4.42,11.69A15.46,15.46,0,0,0,380,70.65c.64,0,1.28,0,1.92-.07a10.28,10.28,0,0,0,8.5-4.8V70H399V25.92h-8.85ZM388,61.32a8.35,8.35,0,0,1-6.17,2.33,8.53,8.53,0,0,1-6.14-2.33,8.8,8.8,0,0,1-2.44-6.65,9.07,9.07,0,0,1,2.4-6.76,8.44,8.44,0,0,1,6.18-2.37,8.71,8.71,0,0,1,6.21,2.16q2.3,2.16,2.29,6.9C390.37,57.52,389.6,59.76,388,61.32Z"/><path class="cls-1" d="M408.65,25.19A4.79,4.79,0,0,0,406,26.26,5.37,5.37,0,0,0,404,30.59a5.38,5.38,0,0,0,5.28,5.28,5.33,5.33,0,0,0,4.26-2A5,5,0,0,0,414.65,31a5.42,5.42,0,0,0-6-5.79Z"/><rect class="cls-1" x="404.92" y="39.16" width="8.78" height="30.87"/><path class="cls-1" d="M441.27,52.88q-3-.83-6-1.4a31.49,31.49,0,0,1-5.14-1.41c-1.44-.55-2.19-1.06-2.23-1.54s-.07-.75-.07-.79a2.34,2.34,0,0,1,1.37-2,7.65,7.65,0,0,1,4.05-.89,9,9,0,0,1,2.74.37,5.39,5.39,0,0,1,1.72.83,4.39,4.39,0,0,1,1.3,1.78,1.83,1.83,0,0,1,.07.38h9l-.13-1a7.45,7.45,0,0,0-1-2.47,14.74,14.74,0,0,0-2.23-2.88,11,11,0,0,0-4.46-2.44,23.06,23.06,0,0,0-7.1-1q-6.53,0-10.29,2.88c-2.52,1.92-3.77,4.09-3.77,6.51v.62a6.64,6.64,0,0,0,3.46,5.45,18.52,18.52,0,0,0,7,2.61,43,43,0,0,1,6.82,1.61c2.06.69,3.11,1.58,3.16,2.68V61q0,3.29-5.49,3.29h-.21a9.24,9.24,0,0,1-3.29-.52,5.63,5.63,0,0,1-2-1.13,4.43,4.43,0,0,1-1-1.44,4.74,4.74,0,0,1-.37-1.13,3.64,3.64,0,0,1,0-.51h-8.92l.14,1.16a8,8,0,0,0,1,2.78,17.54,17.54,0,0,0,2.29,3.26,11.27,11.27,0,0,0,4.5,2.81,19.75,19.75,0,0,0,7.1,1.17q7.81,0,11.66-2.75A8.23,8.23,0,0,0,448.82,61v-.75a6.33,6.33,0,0,0-2.33-4.73A13.49,13.49,0,0,0,441.27,52.88Z"/><path class="cls-1" d="M467.34,38.48q-7.68,0-12.07,4.45a16.14,16.14,0,0,0-4.39,11.74q0,7.34,4.56,11.69t12,4.36a19,19,0,0,0,6.65-1.1,14.06,14.06,0,0,0,4.46-2.44,13.37,13.37,0,0,0,2.57-3.08,16.23,16.23,0,0,0,1.31-2.44,7.18,7.18,0,0,0,.31-1.1h-8.85l-.14.35a3,3,0,0,1-.58.82,7,7,0,0,1-1.1.93,6.53,6.53,0,0,1-1.85.78,9.84,9.84,0,0,1-2.71.35A8.48,8.48,0,0,1,462,62a6.62,6.62,0,0,1-2.5-4.8h23.67a24.51,24.51,0,0,0,.13-2.53q0-7.35-4.22-11.77T467.34,38.48Zm7.41,12.82H459.52a6.55,6.55,0,0,1,2.5-4.25,8.45,8.45,0,0,1,5.39-1.65A8.55,8.55,0,0,1,472.69,47a4.93,4.93,0,0,1,2.06,4.15Z"/><path class="cls-1" d="M503.63,39.16a9,9,0,0,0-8.3,4.6v-4.6h-8.65V70h8.85v-9.4q0-8.77,1.44-11.42t6.86-2.64h3.43V39.16Z"/><polygon class="cls-1" points="131.74 60.02 114.31 22.48 104.22 22.48 104.22 68.81 113.59 68.81 113.59 39.2 127.13 68.81 136.36 68.81 149.9 39.2 149.9 68.81 159.27 68.81 159.27 22.48 149.18 22.48 131.74 60.02"/><path class="cls-2" d="M94.77,20.29a2.23,2.23,0,0,0,0-3.33L76.88,1.32a5.32,5.32,0,0,0-7.5.48,42,42,0,0,1-9.08,8,23.45,23.45,0,0,1-12.55,3.74A23.5,23.5,0,0,1,35.2,9.78a42.17,42.17,0,0,1-9.07-8,5.32,5.32,0,0,0-7.5-.48L.76,17a2.23,2.23,0,0,0,0,3.33L21,38.47a3.11,3.11,0,0,1-2,5.43L15.21,44a2.22,2.22,0,0,0-2.1,1.62l-7.41,26a4.81,4.81,0,0,0,2.74,5.74l15.19,6.37a2.23,2.23,0,0,0,3.1-2l.16-37.91h0l.2-13a1.2,1.2,0,0,1,2.35-.31l16.1,44.35a.85.85,0,0,0,1.25.44,1.7,1.7,0,0,1,1.93,0A.85.85,0,0,0,50,74.82l16.1-44.35a1.2,1.2,0,0,1,2.35.31l.19,13h0l.17,37.91a2.22,2.22,0,0,0,3.09,2l15.2-6.37a4.81,4.81,0,0,0,2.73-5.74l-7.41-26A2.21,2.21,0,0,0,80.29,44l-3.75-.06a3.11,3.11,0,0,1-2-5.43Z"/></g></g></svg>